# xmcd
#
# Track frame offsets: 
#        150
#        19568
#        39279
#        62055
#        84148
#        104639
#        128655
#        148282
#        170500
#        190406
#        213739
#        234702
#
# Disc length: 3418 seconds
#
# Revision: 0
# Processed by: cddbd v1.5.1PL0 Copyright (c) Steve Scherf et al.
# Submitted via: ExactAudioCopy v0.95a5
#
DISCID=a80d580c
DTITLE=赵建华 - 为你钟情
DYEAR=2003
DGENRE=Pop
TTITLE0=为你钟情
TTITLE1=不敢再想你
TTITLE2=往事
TTITLE3=慌乱中的美丽
TTITLE4=星语心愿
TTITLE5=风继续吹
TTITLE6=最近好吗
TTITLE7=我是不是你最疼爱的人
TTITLE8=记事本
TTITLE9=别问我是谁
TTITLE10=我曾用心爱着你
TTITLE11=分手的宽容
EXTD=
EXTT0=
EXTT1=
EXTT2=
EXTT3=
EXTT4=
EXTT5=
EXTT6=
EXTT7=
EXTT8=
EXTT9=
EXTT10=
EXTT11=
PLAYORDER=
